<svg width="12" height="14" viewBox="0 0 12 14" fill="none" xmlns="http://www.w3.org/2000/svg">
<path d="M1.33333 13.6664H10.6667C11.0203 13.6664 11.3594 13.5259 11.6095 13.2758C11.8595 13.0258 12 12.6866 12 12.333V4.99969C12 4.82288 11.9298 4.65331 11.8047 4.52829C11.6797 4.40326 11.5101 4.33303 11.3333 4.33303H9.33333V3.81503C9.33333 2.07569 8.06467 0.51836 6.33333 0.349693C5.86992 0.303635 5.40199 0.355094 4.95966 0.50076C4.51732 0.646426 4.11038 0.883073 3.76501 1.19548C3.41964 1.50788 3.14349 1.88912 2.95433 2.31467C2.76516 2.74022 2.66717 3.20066 2.66667 3.66636V4.33303H0.666667C0.489856 4.33303 0.320286 4.40326 0.195262 4.52829C0.0702379 4.65331 0 4.82288 0 4.99969V12.333C0 12.6866 0.140476 13.0258 0.390524 13.2758C0.640573 13.5259 0.979711 13.6664 1.33333 13.6664ZM9.33333 5.66636V6.99969H8V5.66636H9.33333ZM4 3.66636C4 2.56369 4.89733 1.66636 6 1.66636C7.10267 1.66636 8 2.56369 8 3.66636V4.33303H4V3.66636ZM2.66667 5.66636H4V6.99969H2.66667V5.66636Z" fill="white"/>
</svg>
