<svg width="16" height="16" viewBox="0 0 16 16" fill="none" xmlns="http://www.w3.org/2000/svg">
<path d="M16 8C16 10.1217 15.1571 12.1566 13.6569 13.6569C12.1566 15.1571 10.1217 16 8 16C5.87827 16 3.84344 15.1571 2.34315 13.6569C0.842855 12.1566 0 10.1217 0 8C0 5.87827 0.842855 3.84344 2.34315 2.34315C3.84344 0.842855 5.87827 0 8 0C10.1217 0 12.1566 0.842855 13.6569 2.34315C15.1571 3.84344 16 5.87827 16 8ZM6.793 10.414C6.84076 10.3679 6.87885 10.3127 6.90505 10.2517C6.93125 10.1907 6.94505 10.1251 6.94563 10.0587C6.9462 9.99231 6.93355 9.92647 6.90841 9.86502C6.88327 9.80357 6.84614 9.74775 6.7992 9.7008C6.75225 9.65386 6.69643 9.61673 6.63498 9.59159C6.57353 9.56645 6.50769 9.5538 6.4413 9.55437C6.37491 9.55495 6.3093 9.56875 6.2483 9.59495C6.1873 9.62115 6.13212 9.65924 6.086 9.707L5.5 10.293V7H10.5V10.293L9.914 9.707C9.8197 9.61592 9.6934 9.56552 9.5623 9.56666C9.4312 9.5678 9.30579 9.62039 9.21309 9.71309C9.12039 9.80579 9.0678 9.9312 9.06666 10.0623C9.06552 10.1934 9.11592 10.3197 9.207 10.414L10.647 11.854C10.7408 11.9477 10.8679 12.0004 11.0005 12.0004C11.1331 12.0004 11.2602 11.9477 11.354 11.854L12.793 10.414C12.8841 10.3197 12.9345 10.1934 12.9333 10.0623C12.9322 9.9312 12.8796 9.80579 12.7869 9.71309C12.6942 9.62039 12.5688 9.5678 12.4377 9.56666C12.3066 9.56552 12.1803 9.61592 12.086 9.707L11.5 10.293V6.5C11.5 6.36739 11.4473 6.24021 11.3536 6.14645C11.2598 6.05268 11.1326 6 11 6H8.5V3.5C8.5 3.36739 8.44732 3.24021 8.35355 3.14645C8.25979 3.05268 8.13261 3 8 3C7.86739 3 7.74021 3.05268 7.64645 3.14645C7.55268 3.24021 7.5 3.36739 7.5 3.5V6H5C4.86739 6 4.74021 6.05268 4.64645 6.14645C4.55268 6.24021 4.5 6.36739 4.5 6.5V10.293L3.914 9.707C3.8197 9.61592 3.6934 9.56552 3.5623 9.56666C3.4312 9.5678 3.30579 9.62039 3.21309 9.71309C3.12039 9.80579 3.0678 9.9312 3.06666 10.0623C3.06552 10.1934 3.11592 10.3197 3.207 10.414L4.647 11.854C4.74076 11.9477 4.86792 12.0004 5.0005 12.0004C5.13308 12.0004 5.26024 11.9477 5.354 11.854L6.793 10.414Z" fill="white"/>
</svg>
